<svg xmlns="http://www.w3.org/2000/svg" xmlns:xlink="http://www.w3.org/1999/xlink" viewBox="0 0 1000 1000"><defs><linearGradient id="a" x1="500" x2="500" y1="215.72" y2="787.53" gradientUnits="userSpaceOnUse"><stop offset="0" stop-color="#b1b8bc" stop-opacity=".1"/><stop offset="1" stop-color="#b1b8bc" stop-opacity=".25"/></linearGradient><linearGradient id="d" x1="948.51" x2="948.51" y1="215.72" y2="787.53" xlink:href="#a"/><linearGradient id="e" x1="497.46" x2="497.46" y1="215.72" y2="787.53" xlink:href="#a"/><linearGradient id="f" x1="42.99" x2="42.99" y1="215.72" y2="787.53" xlink:href="#a"/><linearGradient id="b" x1="804.84" x2="804.84" y1="299.47" y2="764.97" gradientUnits="userSpaceOnUse"><stop offset=".14" stop-color="#b1b8bc" stop-opacity=".5"/><stop offset="1" stop-color="#b1b8bc"/></linearGradient><linearGradient id="c" x1="411.81" x2="411.81" y1="256.57" y2="923.42" gradientUnits="userSpaceOnUse"><stop offset="0" stop-color="#b1b8bc" stop-opacity=".25"/><stop offset="1" stop-color="#b1b8bc" stop-opacity=".5"/></linearGradient><linearGradient id="g" x1="160.73" x2="179.11" y1="379.19" y2="783.62" xlink:href="#b"/><linearGradient id="h" x1="152.01" x2="170.39" y1="379.59" y2="784.01" xlink:href="#b"/><linearGradient id="i" x1="411.47" x2="417.6" y1="443.6" y2="818.92" xlink:href="#b"/><linearGradient id="j" x1="347.98" x2="347.98" y1="251.98" y2="757.51" xlink:href="#a"/><linearGradient id="k" x1="411.81" x2="411.81" y1="251.98" y2="757.51" xlink:href="#a"/><linearGradient id="l" x1="409.01" x2="415.14" y1="359.99" y2="587.47" xlink:href="#b"/><linearGradient id="m" x1="407.34" x2="414.48" y1="350.96" y2="531.72" xlink:href="#b"/><linearGradient id="n" x1="200.1" x2="200.1" y1="857.08" y2="641.08" xlink:href="#b"/><linearGradient id="o" x1="619.04" x2="619.04" y1="857.08" y2="641.08" xlink:href="#b"/><linearGradient id="p" x1="353.97" x2="353.97" y1="857.08" y2="641.08" xlink:href="#b"/><linearGradient id="q" x1="801.23" x2="801.23" y1="857.08" y2="641.08" xlink:href="#b"/><linearGradient id="r" x1="690.33" x2="690.33" y1="580.57" y2="808.06" gradientUnits="userSpaceOnUse"><stop offset="0" stop-color="#b1b8bc" stop-opacity=".7"/><stop offset="1" stop-color="#b1b8bc"/></linearGradient><linearGradient id="s" x1="690.33" x2="690.33" y1="531.55" y2="860.32" xlink:href="#c"/></defs><g data-name="Layer 2"><path fill="url(#a)" d="M919.71,772.1q-3.8-.45-7.67-.55a37.73,37.73,0,0,1-36,26h-30v11.42a14.55,14.55,0,0,1-14.55,14.55H770.93a14.56,14.56,0,0,1-14.56-14.55V797.5H663.9v11.42a14.56,14.56,0,0,1-14.56,14.55H588.73a14.55,14.55,0,0,1-14.55-14.55V797.5H540.47c-25,0-42-23.22-37.1-45.77H398.83v57.19a14.56,14.56,0,0,1-14.56,14.55H323.66a14.55,14.55,0,0,1-14.55-14.55V751.73H245v57.19a14.56,14.56,0,0,1-14.55,14.55H169.79a14.55,14.55,0,0,1-14.55-14.55V771.51H90.6a88,88,0,0,0-10.31.59A90.6,90.6,0,0,0,90.6,952.72H909.4A90.6,90.6,0,0,0,919.71,772.1Z"/><path fill="url(#d)" d="M897,409.7V590.91H909.4c.51,0,1,0,1.55,0A90.6,90.6,0,0,0,909.4,409.7Z"/><path fill="url(#e)" d="M111,176.53H872A25,25,0,0,1,897,200a90.61,90.61,0,0,0-66-152.7H163.92A90.62,90.62,0,0,0,89.23,189.19,25,25,0,0,1,111,176.53Z"/><path fill="url(#f)" d="M86,590.76V409.82a90.59,90.59,0,0,0,0,180.94Z"/><path fill="url(#b)" d="M897,201.51V720.1l-138-239a37.32,37.32,0,0,0-21.39-17.23V201.51a25,25,0,0,0-25-25H872A25,25,0,0,1,897,201.51Z"/><path fill="url(#c)" d="M737.64,201.51V463.89a38.57,38.57,0,0,0-11.42-1.73H690.33a38.08,38.08,0,0,0-17.62,4.29V267.76a33.93,33.93,0,0,0-33.92-33.93h-454a33.92,33.92,0,0,0-33.9,33.93v33.33h21.23a4.6,4.6,0,0,1,4.6,4.6V430.41a4.6,4.6,0,0,1-4.6,4.6H150.92v58.23h21.23a4.6,4.6,0,0,1,4.6,4.6V622.56a4.59,4.59,0,0,1-4.6,4.59H150.92v33.36a33.92,33.92,0,0,0,33.9,33.92H534.35l-26.69,46.23a38.27,38.27,0,0,0-4.29,11.07H111a25,25,0,0,1-25-25V201.51a25,25,0,0,1,25-25h601.7A25,25,0,0,1,737.64,201.51Z"/><rect width="33.06" height="133.92" x="143.69" y="301.09" fill="url(#g)" rx="4.6"/><path fill="url(#h)" d="M176.75,497.84V622.56a4.59,4.59,0,0,1-4.6,4.59H148.29a4.59,4.59,0,0,1-4.6-4.59V497.84a4.6,4.6,0,0,1,4.6-4.6h23.86A4.6,4.6,0,0,1,176.75,497.84Z"/><path fill="url(#i)" d="M634.8,252.33h-446a19.43,19.43,0,0,0-19.42,19.42v29.34h2.75a4.6,4.6,0,0,1,4.6,4.6V430.41a4.6,4.6,0,0,1-4.6,4.6H169.4v58.23h2.75a4.6,4.6,0,0,1,4.6,4.6V622.56a4.59,4.59,0,0,1-4.6,4.59H169.4v29.36a19.42,19.42,0,0,0,19.42,19.41H545l109.18-189.1V271.75A19.43,19.43,0,0,0,634.8,252.33ZM577.39,468.74a133.63,133.63,0,0,1-37.53,88.56c-2.14,2.22-4.36,4.38-6.65,6.43a133.61,133.61,0,0,1-88.44,34.57H443.3c-2.62,0-5.21-.07-7.78-.23s-5.33-.38-8-.69a134.45,134.45,0,0,1-14.27.91h-1.47c-2.62,0-5.21-.07-7.78-.23a133.71,133.71,0,0,1-85.4-37.39c-2.22-2.14-4.38-4.36-6.43-6.66a133.48,133.48,0,0,1-34.49-85.29,2.62,2.62,0,0,1,0-.28c0-1.44-.09-2.88-.09-4.33s0-2.92.09-4.37a2.44,2.44,0,0,1,0-.27,133.47,133.47,0,0,1,34.49-85.28c.94-1,1.91-2.07,2.88-3.08l.63-.64c1-1,1.94-2,2.93-2.92A133.71,133.71,0,0,1,404,330.18q3.85-.23,7.78-.23h1.47c1.23,0,2.46,0,3.68.09s2.28.1,3.41.17l.22,0c1.68.11,3.36.25,5,.42l.37,0,1.56.17q3.94-.47,8-.69,3.86-.23,7.78-.23h1.47a133.7,133.7,0,0,1,88.44,34.56c2.29,2.06,4.51,4.22,6.64,6.44a133.58,133.58,0,0,1,37.54,88.53c.07,1.54.1,3.09.1,4.64S577.46,467.21,577.39,468.74Z"/><path fill="url(#j)" d="M545,675.92l-10.69,18.51H184.82a33.92,33.92,0,0,1-33.9-33.92V627.15H169.4v29.36a19.42,19.42,0,0,0,19.42,19.41Z"/><path fill="url(#k)" d="M672.71,267.76V466.45a37.31,37.31,0,0,0-15.2,14.67l-3.29,5.7V271.75a19.43,19.43,0,0,0-19.42-19.42h-446a19.43,19.43,0,0,0-19.42,19.42v29.34H150.92V267.76a33.92,33.92,0,0,1,33.9-33.93h454A33.93,33.93,0,0,1,672.71,267.76Z"/><path fill="#b1b8bc" d="M577.49,464.13c0,1.54,0,3.08-.1,4.61a133.63,133.63,0,0,1-37.53,88.56c-2.14,2.22-4.36,4.38-6.65,6.43a133.61,133.61,0,0,1-88.44,34.57H443.3c-2.62,0-5.21-.07-7.78-.23s-5.33-.38-8-.69a133.59,133.59,0,0,0,74.17-33.66c2.29-2.05,4.51-4.21,6.65-6.43a133.63,133.63,0,0,0,37.53-88.56c.07-1.53.1-3.07.1-4.61s0-3.1-.1-4.64A133.58,133.58,0,0,0,508.37,371c-2.13-2.22-4.35-4.38-6.64-6.44a133.64,133.64,0,0,0-74.17-33.65q3.94-.47,8-.69,3.86-.23,7.78-.23h1.47a133.7,133.7,0,0,1,88.44,34.56c2.29,2.06,4.51,4.22,6.64,6.44a133.58,133.58,0,0,1,37.54,88.53C577.46,461,577.49,462.58,577.49,464.13Z"/><path fill="url(#l)" d="M545.91,459.49A133.58,133.58,0,0,0,508.37,371c-2.13-2.22-4.35-4.38-6.64-6.44l-1.39-1.24-1-.9c-.41-.36-.82-.7-1.24-1.05s-.83-.69-1.25-1c-.58-.49-1.17-1-1.77-1.42l-.78-.62-.78-.61c-.52-.4-1-.8-1.57-1.19l-.36-.26c-.57-.43-1.14-.84-1.71-1.25-1.91-1.37-3.85-2.68-5.83-3.95l-.05,0L482,349.75l-1.44-.88-.37-.22-.4-.23-1.92-1.11-2.1-1.16L473.66,345c-.71-.37-1.43-.73-2.15-1.09s-1.34-.67-2-1l-.62-.29-1.65-.76c-.74-.34-1.48-.66-2.22-1-2.24-1-4.51-1.88-6.81-2.73-1.61-.59-3.24-1.16-4.88-1.69l-2.52-.79q-2.48-.75-5-1.41h0c-1.68-.43-3.37-.84-5.07-1.21l-.22-.05c-.63-.14-1.25-.27-1.88-.39l-.76-.15q-.56-.12-1.11-.21c-.83-.16-1.67-.31-2.51-.45s-2-.32-3-.46l-.58-.08-1.14-.16q-.94-.14-1.89-.24h-.07L426,330.7l-.37,0c-1.67-.17-3.35-.31-5-.42l-.22,0c-1.13-.07-2.27-.13-3.41-.17s-2.45-.08-3.68-.09h-1.47q-3.93,0-7.78.23a133.65,133.65,0,0,0-85.39,37.39q-3.33,3.19-6.44,6.64a133.47,133.47,0,0,0-34.49,85.28c-.06,1.54-.1,3.09-.1,4.64s0,3.08.1,4.61A133.5,133.5,0,0,0,312.21,554c2.05,2.3,4.21,4.52,6.43,6.66A133.63,133.63,0,0,0,404,598.08c2.57.16,5.16.23,7.78.23h1.47a134.45,134.45,0,0,0,14.27-.91h0a133.56,133.56,0,0,0,74.16-33.66c2.29-2.05,4.51-4.21,6.65-6.43a133.63,133.63,0,0,0,37.53-88.56c.07-1.53.1-3.07.1-4.61S546,461,545.91,459.49Zm-56.1,11a1.79,1.79,0,0,1,0,.23c0,.53-.09,1.05-.14,1.58-.12,1.16-.27,2.32-.44,3.48-.09.57-.18,1.15-.28,1.72s-.19,1.07-.29,1.6a1.77,1.77,0,0,1,0,.2c-.1.54-.21,1.07-.33,1.6s-.21.95-.32,1.42c-.05.19-.09.39-.14.59s0,.11,0,.16a.29.29,0,0,0,0,.09c-.1.37-.19.73-.29,1.09s-.24.9-.37,1.35q-.25.92-.54,1.83c-.18.58-.37,1.16-.56,1.74,0,.11-.08.22-.11.32-.18.53-.37,1.05-.56,1.58s-.49,1.3-.75,1.95c-.18.47-.37.93-.56,1.39-.07.15-.13.3-.2.46-.2.48-.41,1-.62,1.42a1.17,1.17,0,0,0-.05.11.42.42,0,0,0,0,.1c-.24.54-.5,1.06-.75,1.58s-.55,1.14-.84,1.7-.58,1.12-.89,1.68-.75,1.36-1.14,2-.64,1.09-1,1.63-.71,1.14-1.09,1.71l0,0c-.28.43-.56.86-.86,1.28s-.43.65-.66,1-.32.46-.49.68l-.83,1.14c-.28.38-.57.75-.86,1.13l-.09.11c-.39.5-.79,1-1.2,1.5s-.89,1.08-1.35,1.61l-1.11,1.25c-.37.42-.75.83-1.13,1.23l-.8.84c-.27.28-.53.55-.81.82-.45.46-.92.92-1.39,1.37-.68.64-1.37,1.28-2.08,1.9-.53.48-1.08,1-1.63,1.41l0,0c-.44.37-.87.73-1.32,1.08l-.06.05,0,0-1.12.87c-.43.33-.86.66-1.3,1l-1.31.95q-1.33.94-2.7,1.83l-1.53,1-1.28.76c-.45.27-.91.53-1.37.79l-1.37.75-.05,0,0,0c-.94.5-1.9,1-2.86,1.45l-.09,0-1.45.68-1.47.65-1.19.5c-.74.31-1.49.6-2.25.88-.35.14-.7.27-1.06.39l-.29.1c-.46.17-.91.33-1.37.48-1.05.35-2.11.68-3.18,1l-1.6.44-1.63.41-.74.18-.73.16-.34.08-.23,0-.22,0-1.11.22-1.57.29c-.55.1-1.11.19-1.67.27l-1.21.17-1.17.15L420,542l-1.2.11-.54,0-1.47.1-1.36.08h-.6l-1.37,0h-.13c-.49,0-1,0-1.47,0-1.11,0-2.2,0-3.3-.07l-.62,0c-.64,0-1.29-.07-1.93-.12l-.34,0L404,542l-.74-.08-1.31-.15-1.39-.19-.18,0-1.3-.2c-.3,0-.59-.09-.88-.15l-.71-.13-.12,0c-.51-.09-1-.19-1.52-.3-1.08-.21-2.15-.46-3.21-.73l-1.07-.28-1.71-.48-.12,0-.46-.14c-.47-.13-.94-.28-1.41-.44l-.27-.08-.24-.08,0,0-.84-.28c-1-.34-2-.71-3-1.1l-1.09-.43-.6-.25c-.43-.18-.85-.35-1.26-.54l-1.46-.65c-.57-.26-1.14-.53-1.71-.82l-.19-.09-.07,0-1.38-.7-.21-.11,0,0c-.53-.27-1.05-.56-1.57-.85a2.69,2.69,0,0,1-.29-.16l0,0-1.54-.89c-.4-.23-.79-.47-1.19-.72-.57-.35-1.13-.7-1.69-1.07s-1.11-.73-1.66-1.11c-.27-.19-.55-.37-.82-.57s-.55-.38-.81-.58c-.49-.35-1-.71-1.45-1.08l-.33-.25-1.05-.82-1.17-1c-.35-.28-.7-.57-1-.87s-.43-.37-.64-.56-.63-.55-.94-.83l-1.06-1q-1.29-1.21-2.52-2.49c-.42-.42-.82-.85-1.22-1.29s-.8-.87-1.19-1.31-.95-1.08-1.41-1.63h0l-1-1.2c-.31-.39-.63-.78-.93-1.18-.47-.6-.93-1.22-1.38-1.84s-.89-1.24-1.33-1.87c-.19-.28-.39-.56-.57-.85s-.5-.75-.74-1.13l0,0c-.27-.41-.53-.83-.78-1.24s-.58-1-.86-1.44l-.48-.84c-.26-.44-.51-.89-.75-1.34s-.37-.67-.54-1-.35-.66-.51-1-.39-.76-.57-1.14-.26-.53-.38-.79-.11-.25-.17-.37c-.24-.52-.48-1-.7-1.56a.25.25,0,0,1,0-.07c0-.06-.05-.13-.08-.19-.22-.51-.44-1-.65-1.56h0c0-.06-.05-.13-.08-.19l-.08-.2c-.16-.4-.32-.8-.47-1.2-.07-.17-.14-.34-.2-.51a2.25,2.25,0,0,1-.08-.24c-.1-.26-.2-.53-.29-.79s-.09-.23-.13-.34l-.12-.34c0-.08-.05-.16-.08-.24-.08-.23-.16-.45-.23-.68l-.48-1.49q-.24-.75-.45-1.5c-.13-.43-.25-.87-.37-1.31l-.09-.31a.29.29,0,0,1,0-.09c-.12-.44-.23-.89-.34-1.33s-.24-1-.35-1.44c0,0,0-.06,0-.09q-.35-1.54-.63-3.12c-.1-.52-.19-1-.27-1.57s-.17-1.05-.24-1.58-.15-1.06-.21-1.59L334,472c-.05-.53-.1-1.07-.14-1.61s-.08-1.08-.11-1.62c0-.34,0-.69-.06-1v-.11h0c0-.48,0-1-.05-1.44,0-.67,0-1.34,0-2s0-1.32,0-2v0c0-.14,0-.27,0-.41,0-.41,0-.83,0-1.24s0-.65.05-1c.05-.83.11-1.67.19-2.5s.16-1.65.26-2.47c.07-.54.14-1.09.22-1.63s.12-.89.2-1.34a2,2,0,0,1,0-.24c.07-.45.15-.9.23-1.34s.2-1.08.31-1.62.26-1.22.4-1.82l.15-.63c0-.2.1-.41.15-.62a1.16,1.16,0,0,1,0-.18s0-.05,0-.07c.07-.29.15-.57.22-.86.11-.44.23-.87.36-1.3.18-.65.37-1.29.57-1.93s.4-1.28.61-1.91.42-1.21.64-1.81.44-1.19.68-1.78.37-.92.56-1.37q.4-1,.84-1.95c.29-.64.59-1.28.89-1.91s.52-1.07.78-1.59l.06-.11c.29-.57.58-1.12.89-1.68s.6-1.1.92-1.65c.52-.91,1.05-1.8,1.61-2.67.27-.44.55-.87.83-1.29s.73-1.1,1.11-1.65l.63-.9c.33-.46.66-.91,1-1.36s.68-.9,1-1.34c.56-.72,1.14-1.43,1.72-2.12l.26-.3c.38-.46.78-.91,1.18-1.36l.09-.1.05-.06c.34-.38.69-.77,1.05-1.14l0-.05c.26-.29.53-.58.8-.86s.69-.71,1-1.06l.3-.3.25-.24.08-.08.55-.53.67-.64q2.39-2.25,5-4.29l1-.81c.41-.32.83-.63,1.26-.95l1.28-.92,1.19-.83,1.21-.8c.51-.34,1-.67,1.55-1l1.36-.82.64-.38.65-.37.28-.16.06,0,1.13-.62c.93-.5,1.88-1,2.83-1.45.48-.24,1-.46,1.44-.68,1-.44,1.94-.87,2.93-1.28l1.48-.59q.75-.3,1.5-.57c1-.35,1.95-.69,2.94-1a.64.64,0,0,1,.18-.06l1.47-.45,1.39-.4.41-.11,1.33-.35,1.58-.38.23-.05,1.08-.24.37-.07,1.11-.22.33-.06.11,0,.71-.13.88-.15,1.3-.2.18,0,1.39-.19,1.31-.15.74-.08,1.59-.14.34,0c.64-.05,1.29-.09,1.93-.12l.62,0c1.1-.05,2.19-.07,3.3-.07.49,0,1,0,1.47,0h.13l1.37,0h.6l1.36.08,1.47.1.54.05,1.2.11,1.21.14,1.17.15,1.21.17c.56.08,1.12.17,1.67.27l1.57.29,1.11.22.22,0,.23.05.34.08.73.16.74.18,1.63.41,1.6.44c1.07.3,2.13.63,3.18,1,.46.15.91.31,1.37.48a1.66,1.66,0,0,1,.29.1c.36.12.71.25,1.06.39.76.28,1.51.57,2.25.88l1.19.5,1.5.66c.94.43,1.87.88,2.8,1.35l1,.52c.47.24.95.5,1.42.76s.79.43,1.18.66l.25.14c.39.22.78.45,1.16.69.2.11.39.23.58.35.36.21.7.43,1.05.66l.13.08.44.28c.91.59,1.81,1.19,2.69,1.82L458,401c.52.38,1,.76,1.53,1.15l1.28,1c.42.34.84.68,1.25,1l.88.74.43.37.44.4q.87.76,1.71,1.56c.54.51,1.08,1,1.61,1.56s1.11,1.13,1.66,1.71l.3.33,0,0c.38.41.76.82,1.13,1.24l.36.4,0,0q.91,1,1.77,2.1t1.56,2l.25.32c.53.69,1,1.38,1.53,2.09l.06.09c.3.41.58.82.86,1.24s.68,1,1,1.51.53.84.79,1.26.46.75.68,1.13c.5.84,1,1.69,1.45,2.55.31.56.6,1.11.89,1.68s.57,1.13.84,1.7.52,1.09.77,1.64a2.72,2.72,0,0,1,.11.25c0,.11.1.21.14.32s.19.42.28.63.07.17.11.26.17.39.25.59c.2.46.39.92.57,1.39l.07.18a1.22,1.22,0,0,0,.07.17c.2.53.41,1.06.6,1.58s.4,1.11.59,1.66a1.72,1.72,0,0,0,.07.21q.3.89.57,1.77c.19.61.37,1.22.55,1.84s.27,1,.4,1.47.26,1,.38,1.51.2.83.29,1.25c0,0,0,.05,0,.08l.33,1.55c.07.37.15.74.21,1.11s.13.71.2,1.06.07.43.1.64c.07.4.13.81.19,1.21s.09.59.12.89.12.85.17,1.28l.06.54c.06.52.11,1,.16,1.55l0,.28c0,.1,0,.2,0,.3q.09,1,.15,2.07c0,.33,0,.65.05,1s0,.83,0,1.24c0,.14,0,.27,0,.41v0q0,1,0,2c0,.68,0,1.35,0,2,0,.48,0,1-.05,1.44h0v.11c0,.34,0,.69-.06,1C489.9,469.31,489.86,469.89,489.81,470.46Z"/><path fill="#fff" d="M490.07,464.13a78.26,78.26,0,1,1-78.25-78.25A78.25,78.25,0,0,1,490.07,464.13Z"/><path d="M411.82,386.88a77.25,77.25,0,1,1-77.26,77.25,77.33,77.33,0,0,1,77.26-77.25m0-1a78.25,78.25,0,1,0,78.25,78.25,78.25,78.25,0,0,0-78.25-78.25Z"/><path fill="url(#m)" d="M476.71,464.13c0,1.55,0,3.09-.16,4.61A64.9,64.9,0,0,1,413.29,529l-1.47,0a66.61,66.61,0,0,1-7.78-.46,64.7,64.7,0,0,1-36.39-16.88,66.2,66.2,0,0,1-6.31-6.77,64.53,64.53,0,0,1-14.26-36.17c-.11-1.52-.16-3.06-.16-4.61s.06-3.11.17-4.64a64.53,64.53,0,0,1,14.25-36.15,66.26,66.26,0,0,1,6.32-6.76A64.7,64.7,0,0,1,404,399.7a66.61,66.61,0,0,1,7.78-.46l1.47,0a64.59,64.59,0,0,1,39.31,14.39,67.31,67.31,0,0,1,6.76,6.31,64.63,64.63,0,0,1,17.18,39.53C476.65,461,476.71,462.57,476.71,464.13Z"/><path fill="#b1b8bc" d="M347.08,468.74H277.72c-.06-1.53-.1-3.07-.1-4.61s0-3.1.1-4.64h69.37c-.11,1.53-.17,3.08-.17,4.64S347,467.22,347.08,468.74Z"/><path fill="#b1b8bc" d="M367.65,511.68l-49,49c-2.22-2.14-4.38-4.36-6.43-6.66l23.23-23.22,25.9-25.9A66.2,66.2,0,0,0,367.65,511.68Z"/><path fill="#b1b8bc" d="M342,390.91l25.67,25.67a66.26,66.26,0,0,0-6.32,6.76l-49.13-49.13q3.1-3.43,6.44-6.64Z"/><path fill="#b1b8bc" d="M411.82,330h1.47v69.3l-1.47,0a66.61,66.61,0,0,0-7.78.46V330.18Q407.9,330,411.82,330Z"/><path fill="#b1b8bc" d="M411.82,529l1.47,0v69.3h-1.47c-2.62,0-5.21-.07-7.78-.23V528.56A66.61,66.61,0,0,0,411.82,529Z"/><path fill="#b1b8bc" d="M459.37,508.29l49,49c-2.14,2.22-4.36,4.38-6.65,6.43l-26.39-26.39L452.6,514.6A64.18,64.18,0,0,0,459.37,508.29Z"/><path fill="#b1b8bc" d="M452.6,413.65l49.13-49.13c2.29,2.06,4.51,4.22,6.64,6.44l-26.48,26.48L459.36,420A67.31,67.31,0,0,0,452.6,413.65Z"/><path fill="#b1b8bc" d="M546,464.13c0,1.54,0,3.08-.1,4.61H476.55c.11-1.52.16-3.06.16-4.61s-.06-3.11-.17-4.64h69.37C546,461,546,462.58,546,464.13Z"/><path fill="#b1b8bc" d="M490,462.15v0c0-.14,0-.27,0-.41,0-.41,0-.83,0-1.24s0-.65-.05-1q-.06-1-.15-2.07c0-.1,0-.2,0-.3l0-.28c-.05-.52-.1-1-.16-1.55l-.06-.54c-.05-.43-.1-.85-.17-1.28s-.07-.59-.12-.89-.12-.81-.19-1.21c0-.21-.06-.43-.1-.64s-.13-.71-.2-1.06-.14-.74-.21-1.11l-.33-1.55s0-.05,0-.08c-.09-.42-.19-.84-.29-1.25s-.25-1-.38-1.51-.26-1-.4-1.47-.36-1.23-.55-1.84-.37-1.18-.57-1.77a1.72,1.72,0,0,1-.07-.21c-.19-.55-.39-1.11-.59-1.66s-.4-1.05-.6-1.58a1.22,1.22,0,0,1-.07-.17l-.07-.18c-.18-.47-.37-.93-.57-1.39-.08-.2-.16-.39-.25-.59s-.07-.18-.11-.26-.18-.42-.28-.63-.09-.21-.14-.32a2.72,2.72,0,0,0-.11-.25c-.25-.55-.51-1.1-.77-1.64s-.55-1.14-.84-1.7-.58-1.12-.89-1.68c-.46-.86-.95-1.71-1.45-2.55-.22-.38-.45-.75-.68-1.13s-.52-.84-.79-1.26-.66-1-1-1.51-.56-.83-.86-1.24l-.06-.09c-.5-.71-1-1.4-1.53-2.09l-.25-.32q-.75-1-1.56-2t-1.77-2.1l0,0-.36-.4c-.37-.42-.75-.83-1.13-1.24l0,0-.3-.33c-.55-.58-1.1-1.15-1.66-1.71s-1.07-1.05-1.61-1.56-1.13-1.05-1.71-1.56l-.44-.4-.43-.37-.88-.74c-.41-.35-.83-.69-1.25-1l-1.28-1c-.5-.39-1-.77-1.53-1.15l-1.08-.78c-.88-.63-1.78-1.23-2.69-1.82l-.44-.28-.13-.08c-.35-.23-.69-.45-1.05-.66-.19-.12-.38-.24-.58-.35-.38-.24-.77-.47-1.16-.69l-.25-.14c-.39-.23-.79-.45-1.18-.66s-.95-.52-1.42-.76l-1-.52c-.93-.47-1.86-.92-2.8-1.35l-1.5-.66-1.19-.5c-.74-.31-1.49-.6-2.25-.88-.35-.14-.7-.27-1.06-.39a1.66,1.66,0,0,0-.29-.1c-.46-.17-.91-.33-1.37-.48-1.05-.35-2.11-.68-3.18-1l-1.6-.44-1.63-.41-1.47-.34-.34-.08-.23-.05-.22,0-1.11-.22-1.57-.29c-.55-.1-1.11-.19-1.67-.27l-1.21-.17-1.17-.15L420,386.3l-1.2-.11-.54-.05-1.47-.1-1.36-.08h-.6l-1.37,0h-.13c-.49,0-1,0-1.47,0-1.11,0-2.2,0-3.3.07l-.62,0c-.64,0-1.29.07-1.93.12l-.34,0-1.59.14-.74.08-1.31.15-1.39.19-.18,0-1.3.2-.88.15-.71.13-.11,0-.33.06-1.11.22-.84.18-.61.13-.23.05-1.58.38-1.33.35-.41.11-1.39.4-1.47.45a.64.64,0,0,0-.18.06c-1,.31-2,.65-2.94,1q-.75.27-1.5.57l-1.48.59c-1,.41-2,.84-2.93,1.28-.48.22-1,.44-1.44.68-.95.47-1.9.95-2.83,1.45l-1.13.62-.06,0-.28.16-.65.37-.64.38-1.36.82c-.52.31-1,.64-1.55,1l-1.21.8-1.19.83-1.28.92c-.43.32-.85.63-1.26.95l-1,.81q-2.57,2-5,4.29l-.67.64-.07.06c-.16.15-.33.31-.48.47l-.08.08-.25.24-.3.3-1,1.06c-.27.28-.54.57-.8.86l0,.05c-.36.37-.71.76-1.05,1.14l-.05.06-.09.1c-.4.45-.8.9-1.18,1.36l-.26.3c-.58.69-1.16,1.4-1.72,2.12-.34.44-.69.89-1,1.34s-.67.9-1,1.36l-.63.9c-.38.55-.75,1.09-1.11,1.65s-.56.85-.83,1.29c-.56.87-1.09,1.76-1.61,2.67-.32.55-.62,1.1-.92,1.65s-.6,1.11-.89,1.68l-.06.11c-.26.52-.53,1.05-.78,1.59s-.6,1.27-.89,1.91-.57,1.3-.84,1.95c-.19.45-.38.91-.56,1.37s-.46,1.19-.68,1.78-.43,1.21-.64,1.81-.41,1.27-.61,1.91-.39,1.28-.57,1.93c-.13.43-.25.86-.36,1.3-.07.29-.15.57-.22.86,0,0,0,.05,0,.07a1.16,1.16,0,0,0,0,.18c-.05.21-.11.42-.15.62l-.15.63c-.14.6-.27,1.21-.4,1.82s-.21,1.08-.31,1.62-.16.89-.23,1.34a2,2,0,0,0,0,.24c-.08.45-.14.89-.2,1.34s-.15,1.09-.22,1.63c-.1.82-.19,1.64-.26,2.47s-.14,1.67-.19,2.5c0,.33,0,.65-.05,1s0,.83,0,1.24c0,.14,0,.27,0,.41v0q0,1,0,2c0,.68,0,1.35,0,2,0,.48,0,1,.05,1.44h0v.11c0,.34,0,.69.06,1,0,.54.07,1.08.11,1.62s.09,1.08.14,1.61l.18,1.61q.09.8.21,1.59c.07.53.15,1.05.24,1.58s.17,1.05.27,1.57q.28,1.57.63,3.12s0,.06,0,.09c.11.48.23,1,.35,1.44s.22.89.34,1.33a.29.29,0,0,0,0,.09l.09.31c.12.44.24.88.37,1.31s.29,1,.45,1.5l.48,1.49c.07.23.15.45.23.68,0,.08.05.16.08.24l.12.34c0,.11.08.23.13.34s.19.53.29.79a2.25,2.25,0,0,0,.08.24c.06.17.13.34.2.51.15.4.31.8.47,1.2l.08.2c0,.06.05.13.08.19h0c.21.52.43,1.05.65,1.56,0,.06.05.13.08.19a.25.25,0,0,0,0,.07c.22.52.46,1,.7,1.56.06.12.11.25.17.37s.25.53.38.79.37.76.57,1.14.33.66.51,1,.36.69.54,1,.49.9.75,1.34l.48.84c.28.48.57,1,.86,1.44s.51.83.78,1.24l0,0c.24.38.48.76.74,1.13s.38.57.57.85c.44.63.88,1.25,1.33,1.87s.91,1.24,1.38,1.84c.3.4.62.79.93,1.18l1,1.2h0c.46.55.93,1.09,1.41,1.63s.79.88,1.19,1.31.8.87,1.22,1.29q1.23,1.27,2.52,2.49l1.06,1c.31.28.62.56.94.83s.42.38.64.56.69.59,1,.87l1.17,1,1.05.82.33.25c.48.37,1,.73,1.45,1.08.26.2.54.39.81.58s.55.38.82.57c.55.38,1.1.75,1.66,1.11s1.12.72,1.69,1.07c.4.25.79.49,1.19.72l1.54.89,0,0a2.69,2.69,0,0,0,.29.16c.52.29,1,.58,1.57.85l0,0,.21.11,1.38.7.07,0,.19.09c.57.29,1.14.56,1.71.82l1.46.65c.41.19.83.36,1.26.54l.6.25,1.09.43c1,.39,2,.76,3,1.1l.84.28,0,0,.24.08.27.08c.47.16.94.31,1.41.44l.46.14.12,0,1.71.48,1.07.28c1.06.27,2.13.52,3.21.73.5.11,1,.21,1.52.3l.12,0,.71.13c.29.06.58.11.88.15l1.3.2.18,0,1.39.19,1.31.15.74.08,1.59.14.34,0c.64.05,1.29.09,1.93.12l.62,0c1.1.05,2.19.07,3.3.07.49,0,1,0,1.47,0h.13l1.37,0h.6l1.36-.08,1.47-.1.54,0L420,542l1.21-.14,1.17-.15,1.21-.17c.56-.08,1.12-.17,1.67-.27l1.57-.29,1.11-.22.22,0,.23,0,.34-.08,1.47-.34,1.63-.41,1.6-.44c1.07-.3,2.13-.63,3.18-1,.46-.15.91-.31,1.37-.48l.29-.1c.36-.12.71-.25,1.06-.39.76-.28,1.51-.57,2.25-.88l1.19-.5,1.47-.65,1.45-.68.09,0c1-.47,1.92-.95,2.86-1.45l0,0,.05,0,1.37-.75c.46-.26.92-.52,1.37-.79l1.28-.76,1.53-1q1.37-.89,2.7-1.83l1.31-.95c.44-.32.87-.65,1.3-1l1.12-.87,0,0,.06-.05c.45-.35.88-.71,1.32-1.08l0,0c.55-.46,1.1-.93,1.63-1.41.71-.62,1.4-1.26,2.08-1.9.47-.45.94-.91,1.39-1.37.28-.27.54-.54.81-.82l.8-.84c.38-.4.76-.81,1.13-1.23l1.11-1.25c.46-.53.91-1.07,1.35-1.61s.81-1,1.2-1.5l.09-.11c.29-.38.58-.75.86-1.13l.83-1.14c.17-.22.33-.45.49-.68s.45-.64.66-1,.58-.85.86-1.28l0,0c.38-.57.74-1.13,1.09-1.71s.66-1.08,1-1.63.77-1.35,1.14-2,.6-1.11.89-1.68.57-1.13.84-1.7.5-1,.75-1.58a.42.42,0,0,1,0-.1,1.17,1.17,0,0,1,.05-.11c.21-.47.42-.94.62-1.42.07-.16.13-.31.2-.46.19-.46.38-.92.56-1.39q.39-1,.75-1.95c.19-.53.38-1.05.56-1.58,0-.1.07-.21.11-.32.19-.58.38-1.16.56-1.74s.37-1.22.54-1.83c.13-.45.25-.9.37-1.35s.19-.72.29-1.09a.29.29,0,0,1,0-.09c0-.05,0-.11,0-.16s.09-.4.14-.59c.11-.47.22-.94.32-1.42s.23-1.06.33-1.6a1.77,1.77,0,0,0,0-.2c.1-.53.2-1.07.29-1.6s.19-1.15.28-1.72c.17-1.16.32-2.32.44-3.48.05-.53.1-1,.14-1.58a1.79,1.79,0,0,0,0-.23c.05-.57.09-1.15.12-1.72,0-.34.05-.69.06-1v-.11h0c0-.48,0-1,.05-1.44,0-.67,0-1.34,0-2S490.06,462.81,490,462.15Zm-13.53,7c-.06.89-.15,1.77-.26,2.64,0,.12,0,.24,0,.36,0,.28-.07.56-.11.83a63.84,63.84,0,0,1-1.34,7c-.09.37-.19.73-.29,1.1-.21.79-.44,1.57-.68,2.35l-.27.85-.32.93c-.22.66-.46,1.32-.71,2-.15.41-.31.82-.48,1.22s-.33.81-.5,1.21a60.62,60.62,0,0,1-3.15,6.36c-.28.49-.56,1-.85,1.47s-.48.8-.73,1.19c-.13.22-.28.45-.42.67-.53.81-1.07,1.61-1.63,2.4-.3.42-.6.84-.92,1.26l-.61.8-.66.85q-1.52,1.89-3.17,3.68l-.13.14c-.3.32-.6.64-.91.95-.52.53-1,1.05-1.58,1.57-.21.21-.43.41-.65.61-.56.53-1.14,1.05-1.72,1.55l-.1.09c-.55.48-1.11.94-1.68,1.4a63.18,63.18,0,0,1-5.31,3.87l-1.05.67c-1.47.92-3,1.79-4.54,2.6-.38.2-.77.4-1.17.59s-.78.39-1.18.57l-1.2.55c-.58.26-1.16.51-1.75.75l-.43.17c-.61.25-1.22.48-1.84.71s-1,.36-1.5.53l-.11,0c-.46.15-.93.31-1.4.45-.7.22-1.4.42-2.1.61s-1.26.34-1.89.49c-1.05.26-2.11.48-3.17.68-.65.12-1.3.24-2,.34l-1.65.24-.79.1-1.41.16-.43,0c-.57,0-1.15.1-1.72.13l-1.19.07-.52,0-1,0-1.47,0c-.64,0-1.29,0-1.93,0-.24,0-.48,0-.71,0-.43,0-.86,0-1.28-.06s-1.08-.07-1.62-.12c-.24,0-.48,0-.71-.06l-.6-.06-.93-.1c-1.05-.13-2.1-.28-3.13-.46l-.76-.13-1.41-.27-1.49-.32q-2.4-.55-4.73-1.28l-1.51-.49c-.51-.17-1-.34-1.5-.53s-1-.36-1.48-.56-1-.38-1.43-.58q-1.49-.63-2.91-1.32c-.48-.22-.95-.45-1.41-.7l-1.39-.73c-.92-.5-1.83-1-2.72-1.56-.45-.27-.89-.55-1.33-.83s-.87-.56-1.3-.86-.61-.41-.9-.62l-.42-.3c-.63-.44-1.25-.9-1.86-1.37-.34-.27-.69-.53-1-.8s-.94-.76-1.4-1.15l-1.36-1.18c-.25-.21-.5-.44-.74-.66a1.57,1.57,0,0,0-.19-.18.6.6,0,0,0-.08-.08c-.26-.24-.52-.48-.77-.73-.71-.68-1.4-1.38-2.07-2.08s-1.55-1.69-2.29-2.56c-.37-.43-.74-.87-1.1-1.32-1-1.25-2-2.54-2.9-3.87-.47-.66-.92-1.34-1.35-2s-.77-1.23-1.14-1.86-.67-1.14-1-1.73l-.42-.77c-.18-.33-.35-.66-.52-1s-.47-.94-.7-1.41-.37-.76-.54-1.15-.26-.57-.38-.85c-.34-.77-.67-1.55-1-2.34-.2-.49-.39-1-.56-1.48-.27-.73-.53-1.47-.76-2.22q-.23-.66-.42-1.32c-.05-.15-.1-.31-.14-.47-.17-.57-.33-1.15-.48-1.72s-.33-1.28-.48-1.92a.11.11,0,0,0,0-.05c-.11-.51-.23-1-.33-1.53-.15-.72-.28-1.44-.4-2.16-.08-.51-.17-1-.24-1.53,0-.19-.06-.39-.08-.59l-.12-.89c-.14-1.09-.24-2.19-.32-3.3-.11-1.52-.16-3.06-.16-4.61,0-.9,0-1.79.06-2.68,0-.31,0-.62,0-.93s0-.69.07-1,.06-.85.1-1.28.08-.84.13-1.27l.15-1.26c.08-.64.17-1.28.28-1.92s.18-1.12.29-1.67.23-1.18.36-1.77.25-1.16.4-1.73c0,0,0,0,0,0,.07-.31.15-.62.23-.93.17-.64.34-1.27.53-1.9l.15-.5c.19-.64.4-1.27.61-1.9s.34-1,.53-1.5.36-1,.56-1.48c.33-.83.67-1.66,1-2.47.19-.41.37-.81.56-1.21l.39-.82c.17-.35.34-.7.52-1l.37-.72c.33-.63.67-1.26,1-1.87s.53-.93.81-1.39c.18-.3.36-.6.55-.9.55-.88,1.11-1.75,1.71-2.6q.53-.76,1.08-1.53c.37-.5.74-1,1.13-1.49.15-.19.29-.38.44-.56l.31-.39.65-.78c.24-.3.49-.59.74-.88s.57-.65.87-1l.78-.85c.25-.27.5-.54.77-.81.81-.84,1.65-1.66,2.51-2.46.55-.51,1.12-1,1.69-1.52,1-.9,2.1-1.76,3.2-2.59.63-.48,1.28-1,1.93-1.42l.27-.18c.56-.4,1.12-.78,1.7-1.15l.39-.26c.57-.36,1.15-.72,1.74-1.07l.3-.18q1-.58,2-1.14l1.39-.73c.46-.24.93-.48,1.41-.7l.81-.38.67-.31c.49-.22,1-.44,1.5-.65,1.16-.5,2.34-.95,3.54-1.37l1.27-.43.19-.07,1.69-.52c.6-.18,1.21-.35,1.82-.51l1.09-.28c.5-.13,1-.24,1.51-.35l.74-.16c.54-.12,1.09-.22,1.63-.32l.76-.13,1-.17.88-.13.49-.06.53-.07.2,0,.93-.1.6-.06c.23,0,.47-.05.71-.06q.81-.08,1.62-.12c.42,0,.85-.05,1.28-.06.23,0,.47,0,.71,0,.64,0,1.29,0,1.93,0l1.47,0,1,0,.52,0,1.19.07c.57,0,1.15.08,1.72.13l.43,0,1.41.16.79.1q.82.1,1.65.24c.66.1,1.31.22,2,.34,1.06.2,2.12.42,3.17.68.63.15,1.26.31,1.89.49s1.4.39,2.1.61c.47.14.94.3,1.4.45l.11,0c.51.17,1,.34,1.5.53.27.09.53.19.79.3l.8.31,1.58.65c.58.24,1.15.5,1.71.76l1.55.74,1.17.59,1,.51,1.31.73,1.13.66.6.36,1,.63c.84.54,1.66,1.09,2.47,1.67.49.34,1,.69,1.44,1,.67.5,1.32,1,2,1.52l.78.65c.3.24.59.49.88.74l1,.87.85.78.81.77q.84.81,1.65,1.65c.25.25.49.51.73.77l.08.08c1.1,1.19,2.17,2.42,3.18,3.69.21.27.43.54.63.81q1.77,2.28,3.31,4.69c.24.37.47.74.7,1.12a62.86,62.86,0,0,1,4.39,8.52c.2.47.39.94.58,1.41.38.94.73,1.91,1.06,2.88.17.48.33,1,.48,1.46s.31,1,.45,1.47.23.8.34,1.21.21.76.3,1.15.22.9.32,1.35a1.42,1.42,0,0,1,0,.22c.09.37.16.74.24,1.11s.1.48.14.72c.13.69.25,1.39.36,2.08.08.47.15.93.21,1.4s.11.79.15,1.19a5,5,0,0,1,.06.54c0,.36.08.72.11,1.09s.09.94.12,1.42,0,.7.07,1.05,0,.61,0,.91c0,.89.06,1.78.06,2.68,0,1.55,0,3.09-.16,4.61C476.54,468.89,476.53,469,476.51,469.19Z"/><path fill="url(#n)" d="M155.24,751.73H245a0,0,0,0,1,0,0v57.18a14.55,14.55,0,0,1-14.55,14.55H169.79a14.55,14.55,0,0,1-14.55-14.55V751.73A0,0,0,0,1,155.24,751.73Z"/><path fill="url(#o)" d="M663.9,797.5v11.42a14.56,14.56,0,0,1-14.56,14.55H588.73a14.55,14.55,0,0,1-14.55-14.55V797.5Z"/><path fill="url(#p)" d="M309.11,751.73h89.72a0,0,0,0,1,0,0v57.18a14.55,14.55,0,0,1-14.55,14.55H323.66a14.55,14.55,0,0,1-14.55-14.55V751.73A0,0,0,0,1,309.11,751.73Z"/><path fill="url(#q)" d="M846.09,797.5v11.42a14.55,14.55,0,0,1-14.55,14.55H770.93a14.56,14.56,0,0,1-14.56-14.55V797.5Z"/><path fill="#b1b8bc" d="M876.08,797.5h-35.9c29.16,0,47.4-31.57,32.82-56.84L723.14,481.12a37.5,37.5,0,0,0-32.81-19h35.89a37.5,37.5,0,0,1,32.81,19L908.89,740.66C923.47,765.93,905.24,797.5,876.08,797.5Z"/><path fill="url(#r)" d="M873,740.66,723.14,481.12a37.88,37.88,0,0,0-65.63,0L507.66,740.66c-14.58,25.27,3.65,56.84,32.81,56.84H840.18C869.34,797.5,887.58,765.93,873,740.66Zm-17.5,27.79a17.38,17.38,0,0,1-15.32,8.85H540.47a17.7,17.7,0,0,1-15.31-26.54L675,491.22a17.67,17.67,0,0,1,30.63,0L855.5,750.76A17.39,17.39,0,0,1,855.5,768.45Z"/><path fill="url(#s)" d="M855.5,750.76,705.64,491.21a17.67,17.67,0,0,0-30.63,0L525.16,750.76a17.7,17.7,0,0,0,15.31,26.54H840.18a17.7,17.7,0,0,0,15.32-26.54ZM709.15,562.53,705,686.29H675.55l-4.17-123.76Z"/><path fill="#b1b8bc" d="M704.68,710.94q-5.46-5.27-14.42-5.27T676,711a18,18,0,0,0-5.46,13.43A17.78,17.78,0,0,0,676,737.8q5.44,5.28,14.28,5.28t14.42-5.28a19.25,19.25,0,0,0,0-26.86Z"/><polygon fill="#b1b8bc" points="709.15 562.53 704.98 686.29 675.55 686.29 671.38 562.53 709.15 562.53"/></g></svg>