<svg xmlns="http://www.w3.org/2000/svg" xml:space="preserve" fill="#e5e5e5" width="800" height="800" viewBox="0 0 24 24"><path d="M22.4 6c-1.1-1.8-2.5-3.3-4.4-4.4C16.2.5 14.2 0 12 0S7.8.5 6 1.6C4.1 2.7 2.7 4.1 1.6 6 .5 7.8 0 9.8 0 12c0 2.6.8 5 2.3 7.1 1.5 2.1 3.5 3.5 5.9 4.3.3.1.5 0 .6-.1.2-.1.2-.3.2-.5v-2.2l-.4.1c-.2 0-.5.1-.9.1-.3 0-.7 0-1.1-.1-.4-.1-.7-.2-1-.5-.3-.2-.6-.6-.7-1l-.2-.4c-.1-.2-.3-.5-.5-.8-.2-.3-.5-.5-.7-.6l-.1-.1-.2-.2c-.1-.1-.1-.1-.1-.2s0-.1.1-.2c.1 0 .2-.1.5-.1H4c.2 0 .5.2.8.4.3.2.6.5.8.8.2.4.5.8.9 1 .3.2.7.3 1 .3.3 0 .6 0 .9-.1.2.1.4 0 .6-.1.1-.7.3-1.2.8-1.6-.6-.1-1.1-.2-1.6-.3-.5-.1-1-.3-1.5-.6s-.9-.6-1.3-1c-.3-.4-.6-1-.8-1.6-.2-.7-.3-1.5-.3-2.3 0-1.3.4-2.3 1.2-3.2-.3-1.1-.3-2.2.2-3.3.3-.1.7-.1 1.3.2.6.2 1 .4 1.3.6.3.1.5.3.7.4 1-.3 2-.4 3-.4s2 .1 3 .4l.6-.4c.4-.2.9-.5 1.4-.7.6-.2 1-.3 1.3-.2.5 1.2.5 2.2.1 3.2.8.9 1.2 2 1.2 3.2 0 .9-.1 1.7-.3 2.4-.2.7-.5 1.2-.8 1.6-.3.4-.8.8-1.3 1-.5.3-1 .5-1.5.6-.5.1-1 .2-1.6.3.5.5.8 1.2.8 2.2v3.3c0 .2.1.3.2.5.1.1.3.2.6.1 2.4-.8 4.4-2.2 5.9-4.3 1.6-2 2.4-4.4 2.4-7 0-2.2-.5-4.2-1.6-6z"/></svg>